<?xml version="1.0" encoding="UTF-8"?>
<svg id="Ebene_1" data-name="Ebene 1" xmlns="http://www.w3.org/2000/svg" viewBox="0 0 1920 747">
  <defs>
    <style>
      .cls-1 {
        fill: #1b32d5;
      }
    </style>
  </defs>
  <path class="cls-1" d="M866,469.5c0,64.89-52.61,117.5-117.5,117.5-36.08,0-68.36-16.27-89.92-41.87-36.23,29.31-82.35,46.87-132.58,46.87-116.53,0-211-94.47-211-211,0-33.61,7.87-65.38,21.85-93.58-9.87,1.69-20,2.58-30.35,2.58-98.58,0-178.5-79.92-178.5-178.5,0-42.19,14.64-80.95,39.12-111.5H0v747h1920v-303H863.22c1.82,8.21,2.78,16.74,2.78,25.5Z"/>
</svg>